<?xml version="1.0" ?>
<mxfile host="app.diagrams.net">
  <diagram name="U-Net Fault Segmentation">
    <mxGraphModel dx="1000" dy="1000" grid="1" gridSize="10" guides="1">
      <root>
        <mxCell id="0"/>
        <mxCell id="1" parent="0"/>
        <mxCell id="2" value="Input
Shape: (None,None,None,1)" style="shape=rectangle;rounded=1;whiteSpace=wrap;html=1;fillColor=#dae8fc;strokeColor=#6c8ebf;" vertex="1" parent="1">
          <mxGeometry x="0" y="100" width="160" height="60" as="geometry"/>
        </mxCell>
        <mxCell id="3" value="Conv3D(16)+ReLU
Conv3D(16)+ReLU
MaxPool(2x2x2)" style="shape=rectangle;rounded=1;whiteSpace=wrap;html=1;fillColor=#dae8fc;strokeColor=#6c8ebf;" vertex="1" parent="1">
          <mxGeometry x="220" y="100" width="160" height="60" as="geometry"/>
        </mxCell>
        <mxCell id="4" value="Conv3D(32)+ReLU
Conv3D(32)+ReLU
MaxPool(2x2x2)" style="shape=rectangle;rounded=1;whiteSpace=wrap;html=1;fillColor=#dae8fc;strokeColor=#6c8ebf;" vertex="1" parent="1">
          <mxGeometry x="440" y="100" width="160" height="60" as="geometry"/>
        </mxCell>
        <mxCell id="5" value="Conv3D(64)+ReLU
Conv3D(64)+ReLU
MaxPool(2x2x2)" style="shape=rectangle;rounded=1;whiteSpace=wrap;html=1;fillColor=#dae8fc;strokeColor=#6c8ebf;" vertex="1" parent="1">
          <mxGeometry x="660" y="100" width="160" height="60" as="geometry"/>
        </mxCell>
        <mxCell id="6" value="Conv3D(128)+ReLU
Conv3D(128)+ReLU" style="shape=rectangle;rounded=1;whiteSpace=wrap;html=1;fillColor=#dae8fc;strokeColor=#6c8ebf;" vertex="1" parent="1">
          <mxGeometry x="880" y="100" width="160" height="60" as="geometry"/>
        </mxCell>
        <mxCell id="7" value="UpSampling(2x2x2)
Concat
Conv3D(64)+ReLU
Conv3D(64)+ReLU" style="shape=rectangle;rounded=1;whiteSpace=wrap;html=1;fillColor=#dae8fc;strokeColor=#6c8ebf;" vertex="1" parent="1">
          <mxGeometry x="1100" y="100" width="160" height="60" as="geometry"/>
        </mxCell>
        <mxCell id="8" value="UpSampling(2x2x2)
Concat
Conv3D(32)+ReLU
Conv3D(32)+ReLU" style="shape=rectangle;rounded=1;whiteSpace=wrap;html=1;fillColor=#dae8fc;strokeColor=#6c8ebf;" vertex="1" parent="1">
          <mxGeometry x="1320" y="100" width="160" height="60" as="geometry"/>
        </mxCell>
        <mxCell id="9" value="UpSampling(2x2x2)
Concat
Conv3D(16)+ReLU
Conv3D(16)+ReLU" style="shape=rectangle;rounded=1;whiteSpace=wrap;html=1;fillColor=#dae8fc;strokeColor=#6c8ebf;" vertex="1" parent="1">
          <mxGeometry x="1540" y="100" width="160" height="60" as="geometry"/>
        </mxCell>
        <mxCell id="10" value="Conv3D(1)
Sigmoid" style="shape=rectangle;rounded=1;whiteSpace=wrap;html=1;fillColor=#dae8fc;strokeColor=#6c8ebf;" vertex="1" parent="1">
          <mxGeometry x="1760" y="100" width="160" height="60" as="geometry"/>
        </mxCell>
        <mxCell id="100" style="edgeStyle=orthogonalEdgeStyle;endArrow=block;html=1;strokeColor=#000000;" edge="1" parent="1" source="2" target="3"/>
        <mxCell id="101" style="edgeStyle=orthogonalEdgeStyle;endArrow=block;html=1;strokeColor=#000000;" edge="1" parent="1" source="3" target="4"/>
        <mxCell id="102" style="edgeStyle=orthogonalEdgeStyle;endArrow=block;html=1;strokeColor=#000000;" edge="1" parent="1" source="4" target="5"/>
        <mxCell id="103" style="edgeStyle=orthogonalEdgeStyle;endArrow=block;html=1;strokeColor=#000000;" edge="1" parent="1" source="5" target="6"/>
        <mxCell id="104" style="edgeStyle=orthogonalEdgeStyle;endArrow=block;html=1;strokeColor=#000000;" edge="1" parent="1" source="6" target="7"/>
        <mxCell id="105" style="edgeStyle=orthogonalEdgeStyle;endArrow=block;html=1;strokeColor=#000000;" edge="1" parent="1" source="7" target="8"/>
        <mxCell id="106" style="edgeStyle=orthogonalEdgeStyle;endArrow=block;html=1;strokeColor=#000000;" edge="1" parent="1" source="8" target="9"/>
        <mxCell id="107" style="edgeStyle=orthogonalEdgeStyle;endArrow=block;html=1;strokeColor=#000000;" edge="1" parent="1" source="9" target="10"/>
        <mxCell id="200" style="edgeStyle=orthogonalEdgeStyle;dashed=1;endArrow=open;html=1;strokeColor=#ff0000;" edge="1" parent="1" source="5" target="7"/>
        <mxCell id="201" style="edgeStyle=orthogonalEdgeStyle;dashed=1;endArrow=open;html=1;strokeColor=#ff0000;" edge="1" parent="1" source="4" target="8"/>
        <mxCell id="202" style="edgeStyle=orthogonalEdgeStyle;dashed=1;endArrow=open;html=1;strokeColor=#ff0000;" edge="1" parent="1" source="3" target="9"/>
      </root>
    </mxGraphModel>
  </diagram>
</mxfile>
